<?xml version="1.0" encoding="utf-8"?>
<!-- Generator: Adobe Illustrator 19.1.0, SVG Export Plug-In . SVG Version: 6.00 Build 0)  -->
<svg version="1.1" id="Слой_1" xmlns="http://www.w3.org/2000/svg" xmlns:xlink="http://www.w3.org/1999/xlink" x="0px" y="0px"
	 viewBox="0 0 168.7 208.5" style="enable-background:new 0 0 168.7 208.5;" xml:space="preserve">
<style type="text/css">
	.st0{fill:#F2F2F2;stroke:#666666;stroke-width:6;stroke-miterlimit:10;}
	.st1{fill:#666666;}
</style>
<g>
	<g>
		<g>
			<g>
				<path class="st0" d="M15.6,69h-0.5C8.4,69,3,74.5,3,81.1v52.6c0,6.7,5.4,12.1,12.1,12.1h0.5c6.6,0,12.1-5.4,12.1-12.1V81.1
					C27.7,74.5,22.2,69,15.6,69z"/>
				<path class="st0" d="M28.4,153.9c0,6.1,5,11.1,11.1,11.1h11.9v28.4c0,6.7,5.4,12.1,12.1,12.1H64c6.7,0,12.1-5.4,12.1-12.1V165
					h16.6v28.4c0,6.7,5.5,12.1,12.1,12.1h0.5c6.7,0,12.1-5.4,12.1-12.1V165h11.9c6.1,0,11.1-5,11.1-11.1V71H28.4V153.9z"/>
				<path class="st0" d="M112.2,20.6l9.4-14.5c0.6-0.9,0.3-2.2-0.6-2.8c-0.9-0.6-2.2-0.4-2.8,0.6l-9.8,15c-7.3-3-15.5-4.7-24.1-4.7
					c-8.6,0-16.8,1.7-24.2,4.7l-9.7-15c-0.6-0.9-1.9-1.2-2.8-0.6c-0.9,0.6-1.2,1.9-0.6,2.8l9.4,14.5c-16.2,8.1-28.4,30-28.4,48
					c0,1.1,0.1,2.2,0.2,3.3h112.3c0.1-1.1,0.2-2.2,0.2-3.3C140.7,50.7,129.2,29,112.2,20.6z"/>
				<path class="st0" d="M153.6,69h-0.5c-6.6,0-12.1,5.4-12.1,12.1v52.6c0,6.7,5.4,12.1,12.1,12.1h0.5c6.7,0,12.1-5.4,12.1-12.1
					V81.1C165.7,74.5,160.3,69,153.6,69z"/>
			</g>
		</g>
	</g>
	<circle class="st1" cx="104.5" cy="46" r="4.2"/>
	<circle class="st1" cx="64.5" cy="46" r="4.2"/>
</g>
</svg>
