<?xml version="1.0" encoding="utf-8"?>
<!-- Generator: Adobe Illustrator 19.1.0, SVG Export Plug-In . SVG Version: 6.00 Build 0)  -->
<svg version="1.1" id="Слой_1" xmlns="http://www.w3.org/2000/svg" xmlns:xlink="http://www.w3.org/1999/xlink" x="0px" y="0px"
	 viewBox="0 0 200.3 181" style="enable-background:new 0 0 200.3 181;" xml:space="preserve">
<style type="text/css">
	.st0{fill:#F2F2F2;stroke:#666666;stroke-width:6;stroke-miterlimit:10;}
</style>
<path class="st0" d="M180,3c-9.5,0-17.3,7.8-17.3,17.3c0,2.2,0.4,4.5,1.3,6.5l-28.4,28.4c-7.2-5.4-16.1-8.5-25.8-8.5
	c-7.7,0-15.2,2.1-21.9,6L70,32.2c1.2-2.4,1.8-5.1,1.8-7.8c0-9.5-7.8-17.3-17.3-17.3s-17.3,7.8-17.3,17.3c0,9.5,7.8,17.3,17.3,17.3
	c1.8,0,3.6-0.3,5.3-0.8l17.7,20.3c-7.1,8-11.1,18.2-11.1,28.9c0,4.3,0.6,8.6,1.9,12.7l-38.9,27.7c-2.7-1.7-5.9-2.6-9.1-2.6
	c-9.5,0-17.3,7.8-17.3,17.3c0,9.5,7.8,17.3,17.3,17.3c9.5,0,17.3-7.8,17.3-17.3c0-1.3-0.1-2.5-0.4-3.8L74.3,115
	c4.8,6.8,11.5,12.1,19.1,15.2l-4.1,11.7c-8.8,0.8-15.7,8.2-15.7,17.2c0,9.5,7.8,17.3,17.3,17.3s17.3-7.8,17.3-17.3
	c0-5.1-2.3-9.9-6.1-13.2l4.5-12.6c1.1,0.1,2.2,0.1,3.2,0.1c5.6,0,11-1,16.1-3.1l18.6,22.4c-1.3,2.5-2,5.2-2,8
	c0,9.5,7.8,17.3,17.3,17.3c9.5,0,17.3-7.8,17.3-17.3c0-9.5-7.8-17.3-17.3-17.3c-1.7,0-3.4,0.3-5,0.7l-17.3-20.8
	c9.9-8.3,15.6-20.3,15.6-33.3c0-9.4-3-18.1-8.1-25.2l28.5-28.5c2.1,0.8,4.3,1.3,6.5,1.3c9.5,0,17.3-7.8,17.3-17.3
	C197.3,10.8,189.6,3,180,3z M109.8,66.7c12.9,0,23.4,10.5,23.4,23.4s-10.5,23.4-23.4,23.4S86.4,103,86.4,90.1
	C86.4,77.2,96.9,66.7,109.8,66.7z"/>
</svg>
