<?xml version="1.0" encoding="utf-8"?>
<!-- Generator: Adobe Illustrator 19.1.0, SVG Export Plug-In . SVG Version: 6.00 Build 0)  -->
<svg version="1.1" id="Слой_1" xmlns="http://www.w3.org/2000/svg" xmlns:xlink="http://www.w3.org/1999/xlink" x="0px" y="0px"
	 viewBox="0 0 159.4 193.7" style="enable-background:new 0 0 159.4 193.7;" xml:space="preserve">
<style type="text/css">
	.st0{fill:#FFFFFF;stroke:#003660;stroke-width:6;stroke-miterlimit:10;}
</style>
<g>
	<path class="st0" d="M130.6,102.8c-0.2-23.8,19.4-35.1,20.2-35.7c-11-16.1-28.2-18.3-34.3-18.6C101.9,47,88,57.1,80.6,57.1
		c-7.4,0-18.8-8.4-30.9-8.2c-15.9,0.2-30.6,9.3-38.8,23.5c-16.5,28.7-4.2,71.2,11.9,94.5c7.9,11.4,17.3,24.2,29.6,23.7
		c11.9-0.5,16.4-7.7,30.7-7.7c14.4,0,18.4,7.7,31,7.4c12.8-0.2,20.9-11.6,28.7-23c9-13.2,12.8-26,13-26.7
		C155.4,140.6,130.8,131.1,130.6,102.8z M106.9,33.1c6.5-7.9,11-19,9.8-30c-9.4,0.4-20.9,6.3-27.6,14.2c-6.1,7-11.4,18.2-10,29
		C89.6,47.2,100.4,41,106.9,33.1z"/>
</g>
</svg>
