<?xml version="1.0" encoding="utf-8"?>
<!-- Generator: Adobe Illustrator 19.1.0, SVG Export Plug-In . SVG Version: 6.00 Build 0)  -->
<svg version="1.1" id="Слой_1" xmlns="http://www.w3.org/2000/svg" xmlns:xlink="http://www.w3.org/1999/xlink" x="0px" y="0px"
	 viewBox="0 0 205.2 190.8" style="enable-background:new 0 0 205.2 190.8;" xml:space="preserve">
<style type="text/css">
	.st0{fill:#FFFFFF;stroke:#666666;stroke-width:3;stroke-miterlimit:10;}
	.st1{fill:#E6E6E6;stroke:#666666;stroke-width:3;stroke-miterlimit:10;}
	.st2{fill:#A3A3A3;stroke:#666666;stroke-width:3;stroke-miterlimit:10;}
	.st3{fill:#E6E6E6;}
	.st4{fill:#666666;}
</style>
<path class="st0" d="M193.7,189.2H11.5c-5.5,0-10-4.5-10-10V11.5c0-5.5,4.5-10,10-10h182.2c5.5,0,10,4.5,10,10v167.7
	C203.7,184.7,199.2,189.2,193.7,189.2z"/>
<path class="st1" d="M203.7,175.3c0,7.7-4.5,14-10,14H11.5c-5.5,0-10-6.3-10-14"/>
<line class="st2" x1="2.6" y1="13.8" x2="203.6" y2="13.8"/>
<rect x="3.1" y="15.3" class="st3" width="199" height="12"/>
<line class="st2" x1="2.6" y1="73.8" x2="203.6" y2="73.8"/>
<line class="st2" x1="2.6" y1="130.8" x2="203.6" y2="130.8"/>
<rect x="50.6" y="54.8" class="st4" width="104" height="3"/>
<rect x="67.6" y="90.3" class="st4" width="70" height="3"/>
<rect x="67.6" y="39.3" class="st4" width="70" height="3"/>
<rect x="50.6" y="105.8" class="st4" width="104" height="3"/>
<rect x="67.6" y="145.3" class="st4" width="70" height="3"/>
<rect x="50.6" y="160.8" class="st4" width="104" height="3"/>
</svg>
