<?xml version="1.0" encoding="utf-8"?>
<!-- Generator: Adobe Illustrator 19.1.0, SVG Export Plug-In . SVG Version: 6.00 Build 0)  -->
<svg version="1.1" id="Слой_1" xmlns="http://www.w3.org/2000/svg" xmlns:xlink="http://www.w3.org/1999/xlink" x="0px" y="0px"
	 viewBox="0 0 205.2 164.7" style="enable-background:new 0 0 205.2 164.7;" xml:space="preserve">
<style type="text/css">
	.st0{fill:#FFFFFF;stroke:#003660;stroke-width:3;stroke-miterlimit:10;}
	.st1{fill:none;stroke:#003660;stroke-width:3;stroke-miterlimit:10;}
	.st2{fill:#003861;}
	.st3{fill:#CAE5DB;}
	.st4{fill:#FFFFFF;stroke:#666666;stroke-width:3;stroke-miterlimit:10;}
	.st5{fill:#A3A3A3;stroke:#666666;stroke-width:3;stroke-miterlimit:10;}
	.st6{fill:#666666;}
	.st7{fill:#E6E6E6;}
	.st8{fill:#CAE5DB;stroke:#003660;stroke-width:3;stroke-miterlimit:10;}
</style>
<path class="st0" d="M193.7,163.2H11.5c-5.5,0-10-4.5-10-10V11.5c0-5.5,4.5-10,10-10h182.2c5.5,0,10,4.5,10,10v141.7
	C203.7,158.7,199.2,163.2,193.7,163.2z"/>
<line class="st1" x1="1.8" y1="11.8" x2="202.8" y2="11.8"/>
<rect x="66.7" y="53.6" class="st2" width="70" height="3"/>
<rect x="49.7" y="75.6" class="st2" width="104" height="3"/>
<rect x="49.7" y="89.1" class="st2" width="104" height="3"/>
<rect x="49.7" y="102.1" class="st2" width="104" height="3"/>
<rect x="49.7" y="115.6" class="st2" width="104" height="3"/>
<rect x="64.8" y="13.3" class="st3" width="66" height="12"/>
<rect x="133.8" y="13.3" class="st3" width="66" height="12"/>
<path class="st4" d="M419.1,164.8H236.9c-5.5,0-10-4.5-10-10V13.2c0-5.5,4.5-10,10-10h182.2c5.5,0,10,4.5,10,10v141.7
	C429.1,160.3,424.6,164.8,419.1,164.8z"/>
<line class="st5" x1="227.8" y1="14.8" x2="428.8" y2="14.8"/>
<rect x="293" y="58.5" class="st6" width="70" height="3"/>
<rect x="276" y="80.5" class="st6" width="104" height="3"/>
<rect x="276" y="94" class="st6" width="104" height="3"/>
<rect x="276" y="107" class="st6" width="104" height="3"/>
<rect x="276" y="120.5" class="st6" width="104" height="3"/>
<rect x="228.5" y="16" class="st7" width="199" height="12"/>
<path class="st8" d="M203.7,149.7c0,7.7-4.5,14-10,14H11.5c-5.5,0-10-6.3-10-14"/>
</svg>
