<?xml version="1.0" encoding="utf-8"?>
<!-- Generator: Adobe Illustrator 19.1.0, SVG Export Plug-In . SVG Version: 6.00 Build 0)  -->
<svg version="1.1" id="Слой_1" xmlns="http://www.w3.org/2000/svg" xmlns:xlink="http://www.w3.org/1999/xlink" x="0px" y="0px"
	 viewBox="0 0 205.2 164.8" style="enable-background:new 0 0 205.2 164.8;" xml:space="preserve">
<style type="text/css">
	.st0{fill:#FFFFFF;stroke:#666666;stroke-width:3;stroke-miterlimit:10;}
	.st1{fill:#D6D6D6;stroke:#666666;stroke-width:3;stroke-miterlimit:10;}
	.st2{fill:#A3A3A3;stroke:#666666;stroke-width:3;stroke-miterlimit:10;}
	.st3{fill:#666666;}
	.st4{fill:#D6D6D6;}
</style>
<path class="st0" d="M193.7,163.2H11.5c-5.5,0-10-4.5-10-10V11.5c0-5.5,4.5-10,10-10h182.2c5.5,0,10,4.5,10,10v141.7
	C203.7,158.7,199.2,163.2,193.7,163.2z"/>
<path class="st1" d="M203.7,149.3c0,7.7-4.5,14-10,14H11.5c-5.5,0-10-6.3-10-14"/>
<line class="st2" x1="2.6" y1="12.9" x2="203.6" y2="12.9"/>
<rect x="50.6" y="78.8" class="st3" width="104" height="3"/>
<rect x="50.6" y="92.3" class="st3" width="104" height="3"/>
<rect x="50.6" y="105.3" class="st3" width="104" height="3"/>
<rect x="50.6" y="118.8" class="st3" width="104" height="3"/>
<rect x="3.1" y="14.3" class="st4" width="199" height="12"/>
<rect x="67.6" y="62.4" class="st3" width="70" height="3"/>
</svg>
