<?xml version="1.0" encoding="utf-8"?>
<!-- Generator: Adobe Illustrator 19.1.0, SVG Export Plug-In . SVG Version: 6.00 Build 0)  -->
<svg version="1.1" id="Слой_1" xmlns="http://www.w3.org/2000/svg" xmlns:xlink="http://www.w3.org/1999/xlink" x="0px" y="0px"
	 viewBox="0 0 131.8 174.9" style="enable-background:new 0 0 131.8 174.9;" xml:space="preserve">
<style type="text/css">
	.st0{fill:#FFFFFF;stroke:#003660;stroke-width:6;stroke-miterlimit:10;}
</style>
<g>
	<path class="st0" d="M65.9,83.9c18.4,0,33.3-18.1,33.3-40.4C99.2,21.1,94.3,3,65.9,3S32.6,21.1,32.6,43.4
		C32.6,65.8,47.5,83.9,65.9,83.9z"/>
	<path d="M3,149.2C3,147.8,3,148.8,3,149.2L3,149.2z"/>
	<path d="M128.8,150.3C128.8,149.9,128.8,147.7,128.8,150.3L128.8,150.3z"/>
	<path class="st0" d="M128.7,147.6c-0.6-38.9-5.7-50-44.6-57c0,0-5.5,7-18.2,7s-18.2-7-18.2-7C9.2,97.5,3.8,108.4,3.1,146.3
		c-0.1,3.1-0.1,4.8-0.1,7c0,0,9.3,18.7,62.9,18.7c53.6,0,62.9-18.7,62.9-18.7C128.8,151.9,128.8,150.1,128.7,147.6z"/>
</g>
</svg>
