<?xml version="1.0" encoding="utf-8"?>
<!-- Generator: Adobe Illustrator 19.1.0, SVG Export Plug-In . SVG Version: 6.00 Build 0)  -->
<svg version="1.1" id="Слой_1" xmlns="http://www.w3.org/2000/svg" xmlns:xlink="http://www.w3.org/1999/xlink" x="0px" y="0px"
	 viewBox="0 0 180.6 180.6" style="enable-background:new 0 0 180.6 180.6;" xml:space="preserve">
<style type="text/css">
	.st0{fill:#F2F2F2;stroke:#666666;stroke-width:6;stroke-miterlimit:10;}
</style>
<g>
	<g id="shopping-cart">
		<path class="st0" d="M55.4,142.7c-9.6,0-17.5,7.9-17.5,17.5s7.9,17.5,17.5,17.5s17.5-7.9,17.5-17.5S65,142.7,55.4,142.7z M3,3
			v17.5h17.5l31.4,66.3l-12.2,21c-0.9,2.6-1.7,6.1-1.7,8.7c0,9.6,7.9,17.5,17.5,17.5h104.8v-17.5H58.9c-0.9,0-1.7-0.9-1.7-1.7v-0.9
			L65,99h64.6c7,0,12.2-3.5,14.8-8.7l31.4-56.7c1.7-1.7,1.7-2.6,1.7-4.4c0-5.2-3.5-8.7-8.7-8.7H39.7L31.8,3H3z M142.7,142.7
			c-9.6,0-17.5,7.9-17.5,17.5s7.9,17.5,17.5,17.5c9.6,0,17.5-7.9,17.5-17.5S152.3,142.7,142.7,142.7z"/>
	</g>
</g>
</svg>
