<?xml version="1.0" encoding="utf-8"?>
<!-- Generator: Adobe Illustrator 19.1.0, SVG Export Plug-In . SVG Version: 6.00 Build 0)  -->
<svg version="1.1" id="Слой_1" xmlns="http://www.w3.org/2000/svg" xmlns:xlink="http://www.w3.org/1999/xlink" x="0px" y="0px"
	 viewBox="0 0 253.7 115.7" style="enable-background:new 0 0 253.7 115.7;" xml:space="preserve">
<style type="text/css">
	.st0{fill:#F2F2F2;stroke:#666666;stroke-width:6;stroke-miterlimit:10;}
	.st1{fill:#666666;}
	.st2{fill:#FFFFFF;}
</style>
<g>
	<circle class="st0" cx="53" cy="62.7" r="50"/>
	<path class="st1" d="M61.9,59.2v-0.1c4-1.1,6.7-4,6.7-9c0-6.5-4.9-9.6-10.7-9.6h-20v44h18.3c11.1,0,15.1-7.5,15.1-13.9
		C71.4,63.7,67.9,60.3,61.9,59.2z M48.9,48.5h1.7c1.7,0,4.3-0.8,5.7,0c1.4,0.8,2.1,2.1,2.1,3.7c0,1.3-0.7,3-1.8,3.8
		c-1.5,1.2-3.2,0.9-5,1l-2.8-0.1V48.5z M58.9,74.9c-1.6,1.1-3.9,1.6-5.7,1.6h-4.3v-11h4.7c1.6,0,3.6-0.6,5,0.3
		c1.4,0.8,2.4,2.8,2.4,4.5C61.1,72.1,60.3,74,58.9,74.9z"/>
</g>
<g>
	<circle class="st0" cx="128" cy="53" r="50"/>
	<g>
		<g>
			<g>
				<path class="st1" d="M139.3,53.5l-8.2,0l0,30h-11.2v-30h-7.5V43.2l7.5,0l0-6.1c0-8.4,2.3-13.6,12.2-13.6h8.3v10.3h-5.2
					c-3.9,0-4.1,1.4-4.1,4.1l0,5.2h9.3L139.3,53.5z"/>
			</g>
		</g>
	</g>
</g>
<g>
	<circle class="st0" cx="200.7" cy="62.7" r="50"/>
	<g>
		<g>
			<g>
				<path class="st1" d="M226.4,58.4v21c0,5.5-4.4,9.9-9.9,9.9H185c-5.5,0-9.9-4.4-9.9-9.9v-21V47.9c0-5.5,4.4-9.9,9.9-9.9h31.5
					c5.5,0,9.9,4.4,9.9,9.9V58.4z"/>
				<path class="st2" d="M200.7,72.7c5,0,9-4.1,9-9c0-2-0.6-3.8-1.7-5.3c-1.6-2.3-4.3-3.8-7.3-3.8c-3,0-5.7,1.5-7.3,3.8
					c-1.1,1.5-1.7,3.3-1.7,5.3C191.7,68.7,195.7,72.7,200.7,72.7z"/>
				<polygon class="st2" points="220.4,52.6 220.4,45.1 220.4,43.9 219.3,43.9 211.7,44 211.8,52.7 				"/>
				<path class="st2" d="M214.7,63.7c0,7.7-6.3,14-14,14c-7.7,0-14-6.3-14-14c0-1.9,0.4-3.6,1-5.3H180v21c0,2.7,2.2,4.9,4.9,4.9
					h31.5c2.7,0,4.9-2.2,4.9-4.9v-21h-7.7C214.4,60,214.7,61.8,214.7,63.7z"/>
			</g>
		</g>
	</g>
</g>
</svg>
