<?xml version="1.0" encoding="utf-8"?>
<!-- Generator: Adobe Illustrator 19.1.0, SVG Export Plug-In . SVG Version: 6.00 Build 0)  -->
<svg version="1.1" id="Слой_1" xmlns="http://www.w3.org/2000/svg" xmlns:xlink="http://www.w3.org/1999/xlink" x="0px" y="0px"
	 viewBox="0 0 208.2 186.7" style="enable-background:new 0 0 208.2 186.7;" xml:space="preserve">
<style type="text/css">
	.st0{fill:#F2F2F2;stroke:#666666;stroke-width:6;stroke-miterlimit:10;}
	.st1{fill:none;stroke:#666666;stroke-width:6;stroke-linecap:round;stroke-miterlimit:10;}
	.st2{fill:#B3B3B3;stroke:#666666;stroke-width:3;stroke-miterlimit:10;}
	.st3{fill:#666666;}
</style>
<g>
	<g>
		<path class="st0" d="M195.2,164.7H13c-5.5,0-10-4.5-10-10V13C3,7.5,7.5,3,13,3h182.2c5.5,0,10,4.5,10,10v141.7
			C205.2,160.2,200.7,164.7,195.2,164.7z"/>
		<line class="st1" x1="44.9" y1="183.7" x2="160.9" y2="183.7"/>
		<rect x="20.1" y="19.8" class="st2" width="168" height="121"/>
	</g>
	<path class="st0" d="M133.7,183.7H74.5c-1.7,0-3-1.4-3-3v-13c0-1.7,1.3-3,3-3h59.2c1.6,0,3,1.3,3,3v13
		C136.7,182.3,135.4,183.7,133.7,183.7z"/>
	<circle class="st3" cx="186.4" cy="152.2" r="3"/>
</g>
</svg>
