<?xml version="1.0" encoding="utf-8"?>
<!-- Generator: Adobe Illustrator 19.1.0, SVG Export Plug-In . SVG Version: 6.00 Build 0)  -->
<svg version="1.1" id="Слой_1" xmlns="http://www.w3.org/2000/svg" xmlns:xlink="http://www.w3.org/1999/xlink" x="0px" y="0px"
	 viewBox="0 0 96.3 213.2" style="enable-background:new 0 0 96.3 213.2;" xml:space="preserve">
<style type="text/css">
	.st0{fill:#F2F2F2;stroke:#666666;stroke-width:6;stroke-miterlimit:10;}
	.st1{fill:#CCCCCC;stroke:#666666;stroke-width:6;stroke-miterlimit:10;}
	.st2{fill:#666666;}
</style>
<g>
	<path class="st0" d="M75.9,60.2H15.6c-2.6,0-4.7-1.9-4.7-4.3c0,0,2.5-6.5,2.8-8.8c1.1-8.4,0.8-38.4,0.8-38.4
		c0-2.4,7.7-5.7,31.3-5.7C64.5,3,77,6.4,77,8.7c0,0,0.2,29.3,0.8,37.9c0.2,2,2.8,9.3,2.8,9.3C80.7,58.3,78.5,60.2,75.9,60.2z"/>
	<path class="st0" d="M75.9,153H15.6c-2.6,0-4.7,1.9-4.7,4.3c0,0,2.5,6.5,2.8,8.8c1.1,8.4,0.8,38.4,0.8,38.4c0,2.4,7.7,5.7,31.3,5.7
		c18.7,0,31.3-3.4,31.3-5.7c0,0,0.2-29.3,0.8-37.9c0.2-2,2.8-9.3,2.8-9.3C80.7,154.9,78.5,153,75.9,153z"/>
	<path class="st1" d="M78.6,156.6H13c-5.5,0-10-4.5-10-10v-80c0-5.5,4.5-10,10-10h65.6c5.5,0,10,4.5,10,10v80
		C88.6,152.1,84.1,156.6,78.6,156.6z"/>
	<rect x="87.1" y="77.1" class="st2" width="9.1" height="18.7"/>
	<rect x="87.1" y="112.8" class="st2" width="6.5" height="22.4"/>
</g>
</svg>
