<?xml version="1.0" encoding="utf-8"?>
<!-- Generator: Adobe Illustrator 19.2.1, SVG Export Plug-In . SVG Version: 6.00 Build 0)  -->
<svg version="1.1" id="Слой_1" xmlns="http://www.w3.org/2000/svg" xmlns:xlink="http://www.w3.org/1999/xlink" x="0px" y="0px"
	 viewBox="0 0 312.2 583.5" style="enable-background:new 0 0 312.2 583.5;" xml:space="preserve">

<g fill="white">
	<g>
		<path d="M62.5,58.2v340.9h62.4v58.2H0.1V0h124.7v58.2H62.5z"/>
		<path d="M246.4,62.9c-2.1-3.1-6.2-4.7-12.5-4.7h-46.8V0H234c28.8,0,48.9,5.9,60.5,17.7c11.6,11.8,17.4,31.9,17.4,60.3
			v301.4c0,28.4-5.8,48.5-17.4,60.3c-11.6,11.8-31.8,17.7-60.5,17.7h-46.8v-58.2H234c6.2,0,10.4-1.6,12.5-4.7
			c2.1-3.1,3.1-8.1,3.1-15.1V78C249.6,71,248.5,66,246.4,62.9z"/>
	</g>
</g>
<g fill="white">
	<path d="M38.2,519.7c2.2,2.2,3.3,6.1,3.3,11.6v37.2c0,5.6-1.1,9.5-3.3,11.6c-2.2,2.2-6.1,3.3-11.6,3.3H0.5v-67h26.1
		C32.1,516.4,36,517.5,38.2,519.7z M30.3,531.3c0-1.7-0.2-2.9-0.7-3.5c-0.5-0.6-1.5-0.9-3-0.9H11.7V573h14.9c1.6,0,2.6-0.3,3-0.9
		c0.5-0.6,0.7-1.8,0.7-3.5V531.3z"/>
	<path d="M79.3,555.2v13.4c0,1.7,0.2,2.9,0.7,3.5s1.5,0.9,3,0.9h11.2c1.6,0,2.6-0.3,3-0.9c0.5-0.6,0.7-1.8,0.7-3.5v-6.5
		h11.2v6.5c0,5.6-1.1,9.5-3.3,11.6c-2.2,2.2-6.1,3.3-11.6,3.3H83.1c-5.6,0-9.5-1.1-11.6-3.3c-2.2-2.2-3.3-6.1-3.3-11.6v-37.2
		c0-5.6,1.1-9.5,3.3-11.6c2.2-2.2,6.1-3.3,11.6-3.3h11.2c5.6,0,9.5,1.1,11.6,3.3c2.2,2.2,3.3,6.1,3.3,11.6v23.8H79.3z M98,544.7
		v-13.4c0-1.7-0.2-2.9-0.7-3.5c-0.5-0.6-1.5-0.9-3-0.9H83.1c-1.6,0-2.6,0.3-3,0.9c-0.5,0.6-0.7,1.8-0.7,3.5v13.4H98z"/>
	<path d="M180.6,516.4l-18.6,67h-11.2l-18.6-67h11.1l12.8,46.3h0.5l12.9-46.3H180.6z"/>
	<path d="M241.3,519.7c2.2,2.2,3.3,6.1,3.3,11.6v37.2c0,5.6-1.1,9.5-3.3,11.6c-2.2,2.2-6.1,3.3-11.6,3.3h-11.2
		c-5.6,0-9.5-1.1-11.6-3.3c-2.2-2.2-3.3-6.1-3.3-11.6v-37.2c0-5.6,1.1-9.5,3.3-11.6c2.2-2.2,6.1-3.3,11.6-3.3h11.2
		C235.2,516.4,239.1,517.5,241.3,519.7z M233.4,531.3c0-1.7-0.2-2.9-0.7-3.5c-0.5-0.6-1.5-0.9-3-0.9h-11.2c-1.6,0-2.6,0.3-3,0.9
		c-0.5,0.6-0.7,1.8-0.7,3.5v37.2c0,1.7,0.2,2.9,0.7,3.5s1.5,0.9,3,0.9h11.2c1.6,0,2.6-0.3,3-0.9c0.5-0.6,0.7-1.8,0.7-3.5V531.3z"/>
	<path d="M300.6,537.8v-6.5c0-1.7-0.2-2.9-0.7-3.5c-0.5-0.6-1.5-0.9-3-0.9h-11.2c-1.6,0-2.6,0.3-3,0.9
		c-0.5,0.6-0.7,1.8-0.7,3.5v9.3c0,1.7,0.2,2.8,0.7,3.3c0.4,0.5,1.5,0.8,3.1,0.8h11.2c5.6,0,9.5,1,11.7,3.1s3.2,5.9,3.2,11.4v9.3
		c0,5.6-1.1,9.5-3.3,11.6c-2.2,2.2-6.1,3.3-11.6,3.3h-11.2c-5.6,0-9.5-1.1-11.6-3.3s-3.3-6.1-3.3-11.6v-6.5H282v6.5
		c0,1.7,0.2,2.9,0.7,3.5c0.5,0.6,1.5,0.9,3,0.9h11.2c1.6,0,2.6-0.3,3-0.9c0.5-0.6,0.7-1.8,0.7-3.5v-9.3c0-1.7-0.2-2.8-0.7-3.3
		s-1.5-0.8-3.1-0.8h-11.2c-5.6,0-9.5-1-11.7-3.1c-2.1-2.1-3.2-5.9-3.2-11.4v-9.3c0-5.6,1.1-9.5,3.3-11.6c2.2-2.2,6.1-3.3,11.6-3.3
		h11.2c5.6,0,9.5,1.1,11.6,3.3c2.2,2.2,3.3,6.1,3.3,11.6v6.5H300.6z"/>
</g>
</svg>
