<?xml version="1.0" encoding="utf-8"?>
<!-- Generator: Adobe Illustrator 19.2.1, SVG Export Plug-In . SVG Version: 6.00 Build 0)  -->
<svg version="1.1" id="Слой_1" xmlns="http://www.w3.org/2000/svg" xmlns:xlink="http://www.w3.org/1999/xlink" x="0px" y="0px"
	 viewBox="0 0 591.3 150.6" style="enable-background:new 0 0 591.3 150.6;" xml:space="preserve">
<g fill="white">
	<path d="M20.5,19.2v112.3h20.5v19.2H0V0h41.1v19.2H20.5z"/>
	<path d="M72.6,20.7c-0.7-1-2.1-1.5-4.1-1.5H53.1V0h15.4c9.5,0,16.1,1.9,19.9,5.8c3.8,3.9,5.7,10.5,5.7,19.9V125
		c0,9.4-1.9,16-5.7,19.9c-3.8,3.9-10.5,5.8-19.9,5.8H53.1v-19.2h15.4c2.1,0,3.4-0.5,4.1-1.5c0.7-1,1-2.7,1-5V25.7
		C73.6,23.4,73.3,21.7,72.6,20.7z"/>
</g>
<g fill="white">
	<path d="M150.1,85.3v30.1c0,6.1,0.9,10.2,2.7,12.3c1.8,2.1,5.6,3.2,11.4,3.2h23.5c5.8,0,9.6-1.1,11.4-3.2
		c1.8-2.1,2.7-6.2,2.7-12.3v-14.1h21.2v14.1c0,12.8-2.7,21.9-8,27.3c-5.3,5.3-14.4,8-27.3,8h-23.5c-12.8,0-21.9-2.7-27.3-8
		c-5.3-5.3-8-14.4-8-27.3V35.5c0-12.8,2.7-21.9,8-27.3c5.3-5.3,14.4-8,27.3-8h23.5c12.8,0,21.9,2.7,27.3,8c5.3,5.3,8,14.4,8,27.3
		v49.8H150.1z M150.1,65.6h51.7V35.5c0-6.1-0.9-10.2-2.7-12.3c-1.8-2.1-5.6-3.2-11.4-3.2h-23.5c-5.8,0-9.6,1.1-11.4,3.2
		c-1.8,2.1-2.7,6.2-2.7,12.3V65.6z"/>
	<path d="M354.5,0.2l-45.8,150.4h-21.1L241.7,0.2h22.1l33.6,110.7h1.2L332.4,0.2H354.5z"/>
	<path d="M460.3,8.2c5.3,5.3,8,14.4,8,27.3v79.9c0,12.8-2.7,21.9-8,27.3c-5.3,5.3-14.4,8-27.3,8h-23.5
		c-12.8,0-21.9-2.7-27.3-8c-5.3-5.3-8-14.4-8-27.3V35.5c0-12.8,2.7-21.9,8-27.3c5.3-5.3,14.4-8,27.3-8h23.5
		C445.9,0.2,455,2.9,460.3,8.2z M447.2,35.5c0-6.1-0.9-10.2-2.7-12.3c-1.8-2.1-5.6-3.2-11.4-3.2h-23.5c-5.8,0-9.6,1.1-11.4,3.2
		c-1.8,2.1-2.7,6.2-2.7,12.3v79.9c0,6.1,0.9,10.2,2.7,12.3c1.8,2.1,5.6,3.2,11.4,3.2h23.5c5.8,0,9.6-1.1,11.4-3.2
		c1.8-2.1,2.7-6.2,2.7-12.3V35.5z"/>
	<path d="M570.2,49.6V35.5c0-6.1-0.9-10.2-2.7-12.3c-1.8-2.1-5.6-3.2-11.4-3.2h-23.5c-5.8,0-9.6,1.1-11.4,3.2
		c-1.8,2.1-2.7,6.2-2.7,12.3v14.1c0,6.1,0.9,10.3,2.8,12.6c1.9,2.3,5.6,3.4,11.3,3.4h23.5c12.8,0,21.9,2.7,27.3,8.1
		c5.3,5.4,8,14.6,8,27.6v14.1c0,12.8-2.6,21.9-7.9,27.3c-5.2,5.3-14.4,8-27.4,8h-23.5c-13,0-22.1-2.7-27.4-8
		c-5.2-5.3-7.9-14.4-7.9-27.3v-14.1h21.2v14.1c0,6.1,0.9,10.2,2.7,12.3c1.8,2.1,5.6,3.2,11.4,3.2h23.5c5.8,0,9.6-1.1,11.4-3.2
		c1.8-2.1,2.7-6.2,2.7-12.3v-14.1c0-6.1-0.9-10.3-2.8-12.6s-5.6-3.4-11.3-3.4h-23.5c-12.8,0-21.9-2.7-27.3-8.1
		c-5.3-5.4-8-14.6-8-27.6V35.5c0-12.8,2.6-21.9,7.9-27.3c5.2-5.3,14.4-8,27.4-8h23.5c13,0,22.1,2.7,27.4,8
		c5.2,5.3,7.9,14.4,7.9,27.3v14.1H570.2z"/>
</g>
</svg>
