<?xml version="1.0" encoding="utf-8"?>
<!-- Generator: Adobe Illustrator 19.2.1, SVG Export Plug-In . SVG Version: 6.00 Build 0)  -->
<svg version="1.1" xmlns="http://www.w3.org/2000/svg" xmlns:xlink="http://www.w3.org/1999/xlink" x="0px" y="0px"
	 viewBox="0 0 305.3 303.9" style="enable-background:new 0 0 305.3 303.9;" xml:space="preserve">
<style type="text/css">
	.st0{display:none;}
	.st1{display:inline;opacity:0.7;fill:#FF7B9C;}
	.st2{fill:#FFFFFF;}
	.st3{fill:#333333;}
	.st4{fill:#BCBCBC;}
	.st5{fill:#2B2B2B;}
	.st6{fill:#898989;}
	.st7{fill:#003F5D;}
	.st8{fill:#EAEAEA;}
	.st9{fill:#DBDBDB;}
	.st10{fill:none;stroke:#A7A7A7;stroke-miterlimit:10;}
	.st11{fill:#FFFFFF;stroke:#A7A7A7;stroke-width:0.9201;stroke-miterlimit:10;}
	.st12{display:inline;}
	.st13{fill:#299BD2;}
	.st14{opacity:0.11;fill:#1A1A1A;}
	.st15{fill:none;stroke:#FFFFFF;stroke-width:3;stroke-miterlimit:10;}
	.st16{fill:#E9E7E8;}
	.st17{opacity:0.4;fill:#333333;}
	.st18{opacity:0.3;fill:#FFFFFF;}
	.st19{fill:#EDEDED;}
	.st20{fill:#075472;}
</style>
<g id="Слой_1" class="st0">
</g>
<g id="Слой_2">
</g>
<g id="Слой_3">
</g>
<g id="Слой_4">
	<polygon class="st20" points="305.3,255.9 201.4,255.9 152.7,303.9 105.4,255.9 0,255.9 0,0 305.3,0 	"/>
	<g>
		<g>
			<path class="st2" d="M123,71v120.3h22v20.5H101V50.4h44V71H123z"/>
			<path class="st2" d="M187.9,72.7c-0.7-1.1-2.2-1.7-4.4-1.7H167V50.4h16.6c10.2,0,17.3,2.1,21.4,6.2C209,60.9,211,68,211,78v106.4
				c0,10-2,17.1-6.1,21.3c-4.1,4.2-11.2,6.2-21.4,6.2H167v-20.5h16.5c2.2,0,3.7-0.6,4.4-1.7c0.7-1.1,1.1-2.9,1.1-5.3V78
				C189,75.5,188.7,73.7,187.9,72.7z"/>
		</g>
	</g>
</g>
</svg>
