<?xml version="1.0" encoding="utf-8"?>
<!-- Generator: Adobe Illustrator 19.1.0, SVG Export Plug-In . SVG Version: 6.00 Build 0)  -->
<svg version="1.1" id="Слой_1" xmlns="http://www.w3.org/2000/svg" xmlns:xlink="http://www.w3.org/1999/xlink" x="0px" y="0px"
	 viewBox="0 0 299.3 82.6" style="enable-background:new 0 0 299.3 82.6;" xml:space="preserve">
<g>
	<g fill="#303030">
		<path d="M14.8,52.8l12.7,6.8v12L0,56.3v-6.9l27.6-15.3v12L14.8,52.8z"/>
		<path d="M47.2,62.8V33.7V0h11.2v23h18.3v10.7H58.4v28.9c0,4.8,4.2,9.4,8.8,9.4h10l2.9,10.7H67C56.1,82.6,47.2,73.9,47.2,62.8z"/>
		<path d="M178,23l-11.2,59.6H155l-19.2-33.9l-19.2,33.9h-11.8L93.5,23h11.3l8.3,44l16.5-29.1h12.2L158.4,67l8.3-44H178z"/>
		<path d="M251.1,50.6v32h-11.2v-32c0-9.8-7.8-17.8-17.6-17.8c-9.6,0-17.6,8.1-17.6,17.8v32h-11.2V23h11.2v5.7
			c5.1-3.9,11.2-6.9,17.6-6.9c7.7,0,15,2.9,20.4,8.3C248.1,35.6,251.1,42.8,251.1,50.6z"/>
		<path d="M284.5,52.7L271.8,46V33.9l27.6,15.3v6.9l-27.6,15.2v-12L284.5,52.7z"/>
	</g>
</g>
</svg>
